<svg xmlns="http://www.w3.org/2000/svg" width="20" height="20" viewBox="0 0 20 20" fill="none">
  <path d="M16.8001 4.1668C15.9115 3.28739 14.7378 2.75453 13.4909 2.66437C12.244 2.57422 11.0059 2.9327 10.0001 3.67514C8.93978 2.8865 7.62006 2.5289 6.30667 2.67434C4.99327 2.81977 3.78377 3.45745 2.92171 4.45896C2.05966 5.46046 1.60909 6.7514 1.66073 8.07182C1.71238 9.39223 2.26242 10.644 3.20007 11.5751L8.20007 16.6168C8.66882 17.085 9.30423 17.3479 9.96673 17.3479C10.6292 17.3479 11.2646 17.085 11.7334 16.6168L16.7334 11.5751C17.2258 11.094 17.6183 10.5203 17.8884 9.887C18.1584 9.25369 18.3006 8.57327 18.3067 7.88483C18.3129 7.19639 18.183 6.51352 17.9245 5.87545C17.6659 5.23739 17.2838 4.65672 16.8001 4.1668ZM15.6251 10.3835L10.6251 15.3835C10.5476 15.4616 10.4554 15.5236 10.3539 15.5659C10.2523 15.6082 10.1434 15.63 10.0334 15.63C9.92339 15.63 9.81447 15.6082 9.71292 15.5659C9.61137 15.5236 9.5192 15.4616 9.44173 15.3835L4.44173 10.3835C3.7882 9.71543 3.42224 8.81803 3.42224 7.88347C3.42224 6.94892 3.7882 6.05152 4.44173 5.38347C5.1077 4.72596 6.00588 4.35728 6.94173 4.35728C7.87759 4.35728 8.77577 4.72596 9.44173 5.38347C9.5192 5.46158 9.61137 5.52357 9.71292 5.56588C9.81447 5.60819 9.92339 5.62997 10.0334 5.62997C10.1434 5.62997 10.2523 5.60819 10.3539 5.56588C10.4554 5.52357 10.5476 5.46158 10.6251 5.38347C11.309 4.83921 12.1694 4.56574 13.0421 4.61522C13.9148 4.66469 14.7387 5.03365 15.3568 5.65172C15.9749 6.2698 16.3438 7.09375 16.3933 7.96644C16.4428 8.83913 16.1693 9.6995 15.6251 10.3835Z" fill="#1F1D14"/>
</svg>