<svg width="16" height="17" viewBox="0 0 16 17" fill="none" xmlns="http://www.w3.org/2000/svg">
<path d="M12.0001 9.83357C11.6062 9.83618 11.2178 9.92601 10.8628 10.0966C10.5077 10.2672 10.1949 10.5143 9.94677 10.8202L6.54677 9.25357C6.70662 8.76407 6.70662 8.23641 6.54677 7.74691L9.94677 6.18024C10.3478 6.66422 10.907 6.99096 11.5255 7.1028C12.1441 7.21464 12.7822 7.10439 13.3274 6.79151C13.8726 6.47863 14.2897 5.98322 14.5051 5.39273C14.7206 4.80224 14.7205 4.15463 14.505 3.56418C14.2894 2.97373 13.8722 2.4784 13.327 2.16562C12.7818 1.85283 12.1436 1.7427 11.5251 1.85465C10.9065 1.96661 10.3474 2.29345 9.94646 2.7775C9.54547 3.26155 9.32835 3.87169 9.33343 4.50024C9.33544 4.65906 9.35105 4.81742 9.3801 4.97357L5.8601 6.59357C5.48482 6.22662 5.0096 5.97858 4.49397 5.88052C3.97834 5.78247 3.44525 5.83875 2.96147 6.04233C2.47769 6.2459 2.06474 6.58772 1.77437 7.02495C1.48399 7.46217 1.3291 7.97537 1.3291 8.50024C1.3291 9.02511 1.48399 9.5383 1.77437 9.97553C2.06474 10.4128 2.47769 10.7546 2.96147 10.9582C3.44525 11.1617 3.97834 11.218 4.49397 11.12C5.0096 11.0219 5.48482 10.7739 5.8601 10.4069L9.3801 12.0269C9.35105 12.1831 9.33544 12.3414 9.33343 12.5002C9.33343 13.0277 9.48983 13.5432 9.78285 13.9818C10.0759 14.4203 10.4923 14.7621 10.9796 14.9639C11.4669 15.1658 12.0031 15.2186 12.5203 15.1157C13.0376 15.0128 13.5128 14.7588 13.8857 14.3859C14.2587 14.0129 14.5126 13.5378 14.6155 13.0205C14.7184 12.5032 14.6656 11.967 14.4638 11.4798C14.2619 10.9925 13.9202 10.576 13.4816 10.283C13.0431 9.98997 12.5275 9.83357 12.0001 9.83357ZM12.0001 3.16691C12.2638 3.16691 12.5216 3.2451 12.7409 3.39161C12.9601 3.53812 13.131 3.74636 13.2319 3.98999C13.3329 4.23363 13.3593 4.50172 13.3078 4.76036C13.2564 5.019 13.1294 5.25658 12.9429 5.44305C12.7564 5.62952 12.5189 5.75651 12.2602 5.80795C12.0016 5.8594 11.7335 5.833 11.4899 5.73208C11.2462 5.63116 11.038 5.46026 10.8915 5.241C10.745 5.02173 10.6668 4.76395 10.6668 4.50024C10.6668 4.14662 10.8072 3.80748 11.0573 3.55743C11.3073 3.30738 11.6465 3.16691 12.0001 3.16691ZM4.0001 9.83357C3.73639 9.83357 3.47861 9.75537 3.25934 9.60887C3.04007 9.46236 2.86918 9.25412 2.76826 9.01048C2.66734 8.76685 2.64094 8.49876 2.69239 8.24012C2.74383 7.98148 2.87082 7.7439 3.05729 7.55743C3.24376 7.37096 3.48134 7.24397 3.73998 7.19253C3.99862 7.14108 4.26671 7.16748 4.51034 7.2684C4.75398 7.36932 4.96222 7.54021 5.10873 7.75948C5.25523 7.97874 5.33343 8.23653 5.33343 8.50024C5.33343 8.85386 5.19296 9.193 4.94291 9.44305C4.69286 9.6931 4.35372 9.83357 4.0001 9.83357ZM12.0001 13.8336C11.7364 13.8336 11.4786 13.7554 11.2593 13.6089C11.0401 13.4624 10.8692 13.2541 10.7683 13.0105C10.6673 12.7668 10.6409 12.4988 10.6924 12.2401C10.7438 11.9815 10.8708 11.7439 11.0573 11.5574C11.2438 11.371 11.4813 11.244 11.74 11.1925C11.9986 11.1411 12.2667 11.1675 12.5103 11.2684C12.754 11.3693 12.9622 11.5402 13.1087 11.7595C13.2552 11.9787 13.3334 12.2365 13.3334 12.5002C13.3334 12.8539 13.193 13.193 12.9429 13.443C12.6929 13.6931 12.3537 13.8336 12.0001 13.8336Z" fill="black"/>
</svg>
